<svg xmlns="http://www.w3.org/2000/svg" version="1.1" width="600px" height="600px" viewBox="0 0 200 200" style="overflow:hidden!important;"><g id="svga-group-wrapper"><g id="svga-group-backs-single"></g><g id="svga-group-humanwrap-move" transform="matrix(1,0,0,1,0,0)"><g id="svga-group-humanwrap" transform="matrix(0.8499994000000002,0,0,0.8499994000000002,14.905791777774795,18.401170139115123)"><g id="svga-group-hair-back-move" transform="matrix(1,-2.856368900253737e-18,2.856368900253737e-18,1,0,0)"><g id="svga-group-hair-back"><path id="SvgjsPath9205" d="M119.8 26.1s4.5-17-22.8-16.6c0 0-18.4-9.8-34.6 10.5 0 0-15.6 3.8-15.6 30.5 0 0-3.8 14.9 5.4 39.1s-7 38.7-9.5 52.4c-2.5 13.6 8.3 19.1 16.5 27.3 8.3 8.3 4.8 15.2 1 17.5 0 0 14.6-6 14-16.2s-2.2-14.3.6-16.5 14.9-10.2 15.9-21.6c.9-11.4 27.2-99.4 27.2-99.4l1.9-7z" fill="#ffffff" stroke-width="none" opacity="1"></path><path id="SvgjsPath9206" d="M118.3 15.5c-3.7-4.8-10.9-7.1-21.2-7-2.3-1.1-20-8.5-35.4 10.6H61.4c-.2 0-.4.1-.5.2-3.7 1.4-15.2 7.7-15.2 31-.4 1.6-3.4 16.3 5.5 39.5 6.2 16.4.6 28.2-4.5 38.6-2.2 4.6-4.3 9-5.1 13.3-2.1 11.4 4.5 17.3 11.6 23.5 1.7 1.5 3.5 3.1 5.2 4.7 4.4 4.4 5 8.1 4.7 10.4-.4 2.8-2.1 4.6-3.5 5.5-.5.3-.6.8-.4 1.3.2.4.5.6.9.6.1 0 .3 0 .4-.1.4-.2 5.9-2.5 10.1-6.7.1 0 .2-.1.3-.2.2-.2.4-.5.6-.7 2.3-2.6 3.9-5.8 3.7-9.6-.2-2.8-.4-5.2-.6-7.1-.6-5.4-.7-7.4.9-8.6.2-.2.6-.4.9-.7 3.9-2.9 14.4-10.7 15.3-21.6.9-11.2 26.9-98.3 27.1-99.2l2-6.9c0-.2 1.4-5.8-2.5-10.8zM86 8c5.9 0 10.1 2.1 10.5 2.3.2.1.3.1.5.1h.2c1.8 1.6 3 3.6 3.7 5.8-1.7-.1-3.4 0-5 .2-2.6-4.2-6.8-7.2-11.9-8.3.6-.1 1.3-.1 2-.1zm-10.3 2.2c1.2-.6 2.4-1 3.6-1.3 6.4-.1 11.9 2.9 15.1 7.7-.6.1-1.1.2-1.6.4-4.1-4.9-10.5-7.5-17.1-6.8zM47.8 49.4c4.3-6.9 12.1-9.4 19.4-6.5-7.3-1.9-14.7.6-19.4 6.5 0 .1 0 0 0 0zm6.1-21.9c6.8-4.1 14.6-3.1 19.9 2-4.3-1.3-9.6 0-13.6 1.9-5.1 2.4-9.2 6.3-11.9 11.2.9-7.1 3.2-11.9 5.6-15.1zm12.5 74.7c.3 13.8-8.5 25-13.5 37.4-3.3 8.1-2.8 15.4.5 22.3-3.5-5.7-5.2-12.4-4.6-19.2.8-8.6 5.2-16.2 9-23.8 3.2-6.4 6-13.5 6.1-20.5.8 1.2 1.7 2.5 2.5 3.8zm-6.6 66.3c-.9-.9-1.8-1.7-2.7-2.5-3.4-4.9-5.8-10.4-5.5-16.5.4-6.9 4.1-13.4 7.2-19.4 4.2-8.2 8.4-16.6 8.8-25.8.1.1.2.3.2.4 4.7 8.7 4.5 16.7-1.2 24.8-3.9 5.5-9 10.4-10.7 17.2-1.3 5.2.2 9.8 3.4 14.1 2.1 2.9 4.8 5.3 6.7 8.3 2.7 4.2 3.7 11.1-1.4 13.7.2-.7.5-1.4.6-2.2.2-2.8-.4-7.2-5.4-12.1zm59-142.7-2 6.8c-1.1 3.6-26.2 88.2-27.2 99.6-.8 10-10.8 17.4-14.5 20.2-.4.3-.7.5-1 .7-2.5 2-2.2 4.9-1.6 10.4.1 1.4.3 2.9.4 4.6-.4-1.2-1-2.4-1.6-3.6-2.4-4.8-4.2-9.1-2.8-14.5 1-4.1 3.4-7.7 6.1-10.9 7.7-9 19.6-16.9 18.1-30.3-.1-.8-1.3-.8-1.2 0 1.7 15-13.7 22.4-20.8 33.4-2.6 4-4.4 8.9-3.8 13.7.6 5.5 5.1 10.3 5.8 15.7-.2-.7-.4-1.3-.7-2-3.2-7.3-8.9-11.7-7.1-20.6 2.8-13.5 16.6-21.3 20.4-34.5.2-.8-1-1.1-1.2-.3-3.6 12.2-15.2 19.4-19.5 31.2-1.6 4.4-2 9.2-.4 13.6 1.9 5.1 8.5 10.9 7.7 16.7-.8 1.5-1.9 2.9-3.1 4.1.4-.9.7-1.9.8-3 .5-5.3-3.2-9.6-6.4-13.4-3-3.5-6-6.9-6.4-11.7-.5-5.2 2.1-9.8 5-13.9 3.7-5.2 8.6-9.9 10.3-16.2 2-7.2-.6-13.7-4.4-19.6 0-.9-.1-1.8-.2-2.6s-1.3-.8-1.2 0c0 .2 0 .4.1.6-.8-1.2-1.6-2.3-2.5-3.4-.2-3.9-1.4-7.7-3.9-11.3-.5-.7-1.5 0-1.1.6 2 2.9 3.2 5.9 3.7 8.9-1.7-2.3-3.3-4.6-4.7-6.8-4.7-7.7-6.3-16.6-2.2-24.9 3.5-7.1 10.2-11.5 17.9-12.8.8-.1.5-1.3-.3-1.2-10.8 1.8-19.5 10.1-21 21.1-1.5 10.9 4.8 18.6 10.6 26.7.7 11.8-8 23.9-12.3 34.7-4 10-3.8 20.4 1 29.5-5.5-5-9.5-10.1-7.9-18.8.8-4 2.8-8.3 5-12.8 4.9-10.2 11.1-23 4.5-40.2-.4-1-.8-2-1.1-3 .5.3 1.2-.3.8-.9-3.6-7.2-4.6-15.2-2.5-23 2.3-8.3 9.1-16.8 18.7-13.8.8.2 1.1-1 .3-1.2-8.5-2.7-15.6 3.2-18.9 10.8C48.7 62.3 48 66.7 48 71c-1.6-9.4-1-16-.6-18.7C52.7 43.5 63 41 71.8 46.2c.7.4 1.3-.7.6-1.1-.7-.4-1.4-.8-2.2-1.1.3-.2.4-.8-.1-1-7.8-4.5-17-2.7-22.3 4.1v-.8c2-5.3 5.6-9.7 10.5-12.6 4.7-2.8 12.3-5.2 17.3-2 .3.5.7 1 1 1.5.2.4.7.4.9.1.5.6 1.4-.3.9-.9-.6-.7-1.3-1.3-2-1.8-4.8-6.4-13-8.6-20.4-5.6 3.2-3.2 6.3-4 6.5-4.1.2 0 .4-.2.5-.4l.1-.1c6.4.9 11.9 4.6 15.2 10.2.4.7 1.5.1 1.1-.6-3.3-5.7-8.9-9.5-15.3-10.6 2.6-3 5.2-5.3 7.8-7 7.4-2.5 14.9-.3 19.6 5-1.5.5-2.7 1-3.6 1.5-4.7 2.9-5.1 5.5-5.1 5.5H84l3.7-1.4 5.9-2.7c1 1.8 1.8 3.7 2.3 5.9.2.8 1.4.5 1.2-.3-.4-2.1-1.2-4-2.1-5.7h1.3c.7 1.9 1.2 4 1.2 6.2 0 .8 1.3.8 1.2 0 0-2.2-.4-4.2-1.1-6.1l3.8.1c0 .5-.1 1.1-.1 1.7-.1.8 1.1 1.1 1.2.3.1-.7.2-1.3.2-2h1L113 25c-2-5.6-6.3-7.9-10.9-8.6-.6-2.2-1.7-4.2-3.2-5.9h.6c.1.1.2.1.3.1 10.1.6 17.2 9.3 15.6 19.3-.1.8 1.1 1.1 1.2.3 1.3-8-2.5-15.2-9-18.7 4.2 1 7.2 2.8 9.2 5.2 3.1 4.1 2.1 8.8 2 9.1zm-5.3.5c0 .1.1.2.1.3 0-.1 0-.2-.1-.3zM113 25c.1.1.1.3.2.4-.1-.3-.2-.4-.2-.4zm1 2.6c0 .1.1.2.1.3 0-.1-.1-.2-.1-.3zm.8 2.2c.4 1.1.3.8 0 0zm-.7-1.9c.2.7.5 1.4.7 1.9-.1-.4-.4-1-.7-1.9zm-.9-2.5c.1.2.2.5.3.9l-.3-.9zm.4 1.2c.1.3.2.7.4 1-.1-.3-.2-.7-.4-1z" fill="#000000" stroke-width="none" opacity="1"></path></g></g><g id="svga-group-humanbody-back"><path id="SvgjsPath8797" d="M86.5 107c0 18.8 2.7 50.3-8.1 58s-31.8 13.9-36.7 24.4-3.6 29.4-3.6 29.4h124.1s.6-23.1-4.2-30.4c-6.6-10.1-28.5-17.7-36.5-22.9-8.1-5.2-10.9-32.2-10.9-58.8l-24.1.3z" fill="#ffffff" stroke-width="none" opacity="1"></path></g><g id="svga-group-chinshadow-single"></g><g id="svga-group-humanbody-front"><path id="SvgjsPath8798" d="M163.4 220.1H37.2l-.3-.9c-.1-.5-1.3-19.7 3.6-30.3 3.4-7.3 13.6-12.4 23.5-17.4 5.1-2.5 9.9-5 13.6-7.5 8.6-6 8.1-29.8 7.7-47.1-.1-3.5-.1-6.8-.1-9.8v-1.3l26.7-.4v1.3c0 32 3.8 53.5 10.3 57.7 2.4 1.6 6 3.3 10.2 5.4 9.7 4.7 21.9 10.6 26.7 18 5 7.6 4.4 30.9 4.4 31.2l-.1 1.1zm-124.1-2.6h121.6c-.1-2.4-.6-23.2-4-28.4-4.4-6.7-16.2-12.5-25.6-17-4.3-2.1-8-3.9-10.5-5.5-9.8-6.3-11.4-38.8-11.5-58.6l-21.5.4c0 2.6.1 5.5.1 8.5.4 18.9.9 42.4-8.8 49.3-3.8 2.7-8.7 5.1-13.9 7.7-9.5 4.8-19.4 9.7-22.3 16.1-3.3 6.9-3.7 25.9-3.6 27.5z" fill="#000000" stroke-width="none" opacity="1"></path><path id="SvgjsPath8799" d="M76.8 173.7c4.8 2.3 10.4 3.9 15.7 2.9.4-.1.4-.7 0-.8-5.1-.9-10.2-1.4-15.2-3.2-.6-.2-1.1.8-.5 1.1zm31.5 2.4c2.4.3 4.9-.4 7.1-1.2 2.1-.8 4.3-1.7 5.8-3.4.5-.5-.1-1.2-.7-.9-2.1.9-3.9 2.3-6.1 3-2 .7-4.1 1-6.2 1.5-.6.1-.4.9.1 1z" fill="#000000" stroke-width="none" opacity="1"></path></g><g id="svga-group-clothes-single"><path id="SvgjsPath9532" d="M35.41 220.36s-1.42-21.88 2.61-29.95 8.07-12.34 37.02-25.39c0 0 6.64 8.54 23.49 8.78s24.92-8.78 24.92-8.78 16.61 7.59 20.65 10.2 12.1 6.88 16.14 12.34 3.28 32.8 3.28 32.8H35.41z" fill="#ffffff" stroke-width="none" opacity="1"></path><path id="SvgjsPath9533" d="M161.04 186.97c-3.42-4.63-9.47-8.33-13.89-11.03-.93-.57-1.79-1.09-2.51-1.56-4.05-2.62-20.09-9.96-20.77-10.27-.4-.18-.87-.08-1.16.24-.08.09-7.99 8.67-24.16 8.45-16.11-.23-22.66-8.32-22.72-8.4-.28-.36-.78-.49-1.2-.3-28.99 13.07-33.31 17.47-37.5 25.86-4.14 8.28-2.76 30.31-2.7 30.6.1.46.51.8.98.8h128.11c.53 0 .97-.41 1-.94.03-.52.73-27.77-3.48-33.45zm-1.6 1.19c.04.06.08.13.13.19-1.01-.51-2.1-.88-3.19-1.19.86-.59 1.46-.74 1.48-.74l-.03-.15c.58.6 1.13 1.24 1.61 1.89zm-13.33-10.51c3.13 1.91 7.1 4.34 10.25 7.19-9.73 7.23-8.39 19.6-8.69 34.52H52.95c-.07-8.38.38-22.45-5.39-33.83.15-.03.14-.28-.01-.3l-.2-.03c-.85-1.32-1.63-2.14-2.26-2.65 4.25-3.76 11.36-7.85 25.22-14.27 1.74 2.41 8.22 9.42 25.7 11.15 1.49.15 2.93.22 4.31.22 16.2 0 25.4-9.37 27.34-11.57 5.21 2.44 13.3 6.31 15.9 7.99.73.47 1.6 1 2.55 1.58zM38.72 191.27c3.12 1.49 6.63 2.74 10.09 2.79.03 0 .05-.02.07-.03.29 1.01.57 2.11.83 3.32-4.28-.75-8.11-1.54-12.12-3.34.31-.89.69-1.8 1.13-2.74zm4.15-6.52c.7.3 1.43.54 2.18.69.73.95 1.59 2.39 2.46 4.54-2.35-.62-4.67-1.22-6.94-2.12.66-1.07 1.41-2.09 2.3-3.11zm1.54-.08c-.39-.09-.78-.19-1.17-.32.12-.13.25-.27.38-.4.21.16.47.39.79.72zm34.58-15.06c-.41.39-.75.88-1.1 1.32-.21.27-.42.54-.62.82-.58-.36-1.11-.72-1.59-1.07.61-.7 1.29-1.34 1.99-1.95.41.28.84.57 1.32.88zm1.56.92c-.5.74-.94 1.52-1.38 2.29-.58-.3-1.11-.6-1.61-.91.25-.29.5-.57.75-.87.34-.4.71-.8.99-1.25.39.25.81.5 1.25.74zm2.65 1.27c-.55.7-1.04 1.45-1.54 2.19-.75-.31-1.44-.64-2.09-.97.49-.74.98-1.5 1.41-2.28.69.37 1.42.72 2.22 1.06zm1.91.75c-.46.73-.84 1.53-1.21 2.3-.64-.22-1.24-.45-1.82-.69.54-.71 1.11-1.42 1.6-2.16.45.18.93.37 1.43.55zm8.08 4.51c.28-.84.58-1.69.76-2.55.46.05.94.1 1.42.13-.3.85-.53 1.73-.73 2.61-.5-.05-.98-.12-1.45-.19zm-.37-.05c-1.69-.26-3.26-.57-4.71-.92.33-.78.67-1.59.93-2.4 1.4.33 2.92.59 4.55.78-.31.82-.54 1.69-.77 2.54zm-5.14-1.03c-.55-.14-1.09-.29-1.61-.44.4-.76.8-1.54 1.1-2.34.43.12.88.24 1.34.36-.32.79-.58 1.62-.83 2.42zm-2.03-.56c-.47-.14-.93-.29-1.37-.44.43-.75.87-1.52 1.2-2.31.41.14.82.28 1.26.41-.42.74-.77 1.54-1.09 2.34zm31.24-4.56c.41.71.82 1.43 1.26 2.12-.78.44-1.62.88-2.51 1.29-.35-.76-.73-1.52-1.1-2.27-.02-.03-.04-.04-.06-.06a30.4 30.4 0 0 0 2.41-1.08zm2.46-1.37c.28.33.56.67.84 1 .23.26.45.53.68.79-.71.49-1.49.99-2.33 1.48-.41-.71-.85-1.39-1.3-2.08.77-.4 1.47-.8 2.11-1.19zm1.89-1.26c.23.35.47.69.74 1.01.19.23.41.5.65.75-.4.32-.84.65-1.31.98-.25-.28-.53-.55-.78-.83l-.84-.87c.57-.36 1.08-.7 1.54-1.04zm1.65-1.3c.2.22.4.44.61.65.29.3.57.63.88.93-.37.34-.8.7-1.27 1.09-.2-.19-.41-.38-.58-.58-.31-.35-.6-.71-.88-1.09.49-.37.9-.71 1.24-1zm-8.61 5.23c.32.76.63 1.53.97 2.29-3.94 1.78-8.9 3.15-14.82 3.18.14-.95.19-1.93.04-2.86 5.62-.16 10.21-1.29 13.8-2.73 0 .03 0 .08.01.12zm9.4-5.94c.47.22 1.19.55 2.07.96-.26.27-.58.59-.98.96-.29-.32-.61-.62-.91-.93-.2-.2-.41-.4-.61-.61.17-.13.31-.27.43-.38zm-23.59 8.55c-.05.96-.05 1.91-.12 2.86-.73 0-1.48-.03-2.24-.08.12-.58.18-1.18.09-1.77-.02-.15-.27-.15-.29 0-.08.59-.14 1.16-.24 1.73-.36-.03-.72-.05-1.09-.08-.39-.04-.76-.08-1.14-.13.25-.87.48-1.74.63-2.63.91.06 1.85.11 2.82.12.55.02 1.06-.01 1.58-.02zm-22.73-6.28c-.76.54-1.41 1.21-2 1.94-.73-.55-1.34-1.08-1.83-1.56.74-.55 1.51-1.11 2.14-1.77.45.41 1.01.88 1.69 1.39zm-2.58-2.26c.17.18.4.41.66.65-.78.49-1.49 1.11-2.19 1.72-.45-.46-.81-.86-1.07-1.19.85-.38 1.71-.77 2.6-1.18zm-34.45 22.02c2.36 1.04 4.83 1.94 7.39 2.28.36.94.72 2 1.07 3.2-3.4-.85-6.65-1.49-9.9-2.83.01-.01.01-.03.02-.04.46-.92.93-1.78 1.42-2.61zm-4.15 13.45c2.58 1.32 5.43 2.39 8.29 2.63.19.02.22-.27.04-.32-2.87-.83-5.61-1.55-8.32-2.77.04-.89.13-1.91.32-3.02 4.1 2.29 9.02 4.24 13.74 4.2.14 0 .17-.21.03-.25-4.81-1.23-9.2-2.15-13.69-4.39.19-1.04.47-2.16.85-3.33 3.71 2 8.12 3.44 12.36 3.35 1.96 8.94 1.26 18.47 1.12 21.57H36.28c-.44-7.64-.12-16.52-.1-17.67zm113.41 17.66c.09-.98-.45-15.81.53-19.01 2.84 1.28 5.93 2.15 9.01 2.42.21.02.24-.31.05-.36-3.05-.79-6-1.63-8.96-2.64.15-.89.32-1.72.5-2.5 2.27.81 4.55 1.5 6.93 1.99.21.04.3-.26.09-.32-2.32-.65-4.63-1.34-6.9-2.13.22-.88.47-1.69.72-2.43 2.57.87 5.17 1.73 7.81 2.33.22.05.29-.25.09-.33-2.51-.99-5.13-1.74-7.73-2.47.27-.71.55-1.36.83-1.95 2.33.81 4.7 1.65 7.09 2.17.26.06.35-.29.11-.39-2.23-.92-4.62-1.58-6.97-2.23.39-.74.79-1.38 1.18-1.92 2.01.72 4.05 1.57 6.12 2.04.22.05.39-.28.16-.39-1.9-.87-3.98-1.43-5.98-2.06.55-.69 1.08-1.22 1.56-1.62 1.47.47 2.85 1.1 4.27 1.68 3.5 6.54 2.53 27.42 2.46 30.12" fill="#000000" stroke-width="none" opacity="1"></path></g><g id="svga-group-head" transform="matrix(1,-2.856368900253737e-18,2.856368900253737e-18,1,0,0)"><g id="svga-group-ears-left-move" transform="matrix(1,0,0,1,0,0)"><g id="svga-group-ears-left"><path id="SvgjsPath8743" d="M62.9 81.4s-3-4.7-6.1-5.6-6.6 2.1-6.1 7.8c.6 5.7 8.7 18.9 15.9 19.7 6.2.7-1.1-18.5-3.7-21.9z" fill="#ffffff" stroke-width="none" opacity="1"></path><path id="SvgjsPath8744" d="M66.5 104.2c-7.7-.8-16.1-14.5-16.7-20.4-.3-3.4.8-6.4 3-7.9 1.3-.9 2.9-1.2 4.4-.8 3.3.9 6.2 5.3 6.6 5.9 2.1 2.7 8.5 18 5.5 22-.5.7-1.4 1.1-2.3 1.1-.3.1-.4.1-.5.1zM53.9 77.1c-1.7 1.1-2.5 3.6-2.3 6.4.5 5.4 8.5 18.3 15 18.9.4 0 .7 0 .9-.3 2.1-2.9-3.2-17.2-5.5-20.3v-.1c-.8-1.2-3.3-4.6-5.5-5.2-.2-.1-.5-.1-.7-.1-.7.2-1.3.4-1.9.7z" fill="#000000" stroke-width="none" opacity="1"></path><path id="SvgjsPath8745" d="M55.5 79.3c2.6 1.4 5 5.6 6.2 9.6v.1c0 .3-.2.4-.3.1-.4-1.2-1-1.2-1.7 0-.2.7-.1 1.5.1 2.3.2.7.5 1.4.8 1.9.6 1.2 1.4 2 2.1 3 .2.3 0 .7-.2.5-1.6-1-3.9-4.6-3.4-7.6.2-1.4 1.1-2.2 1.8-1.7-.9-2.1-1.9-3.9-3.2-5.4-.7-.8-2.3-2.7-3.1-2.3-1.5.6-.7 4.6-.5 6.4 0 .3-.2.4-.3.1-1-2.9-1.1-8.5 1.7-7z" fill="#000000" stroke-width="none" opacity="1"></path><path id="SvgjsPath8746" d="M61.9 97.8c-2.8-.9-4.8-4.6-6-8.8-.7-2.5-2.1-8.3.6-8.2.2 0 .3.5.1.6-2.5 1.1.2 8.9 1 10.7 1.1 2.6 2.5 4.3 4.3 5.2.2.2.2.6 0 .5z" fill="#000000" stroke-width="none" opacity="1"></path></g></g><g id="svga-group-ears-right-move" transform="matrix(1,0,0,1,0,0)"><g id="svga-group-ears-right"><path id="SvgjsPath8747" d="M137.1 81.4s3-4.7 6.1-5.6 6.6 2.1 6.1 7.8c-.6 5.7-8.7 18.9-15.9 19.7-6.2.7 1.1-18.5 3.7-21.9z" fill="#ffffff" stroke-width="none" opacity="1"></path><path id="SvgjsPath8748" d="M133.1 104.2c-1 0-1.8-.4-2.3-1.1-2.9-4 3.4-19.3 5.5-22 .4-.6 3.3-5.1 6.6-5.9 1.5-.4 3-.1 4.4.8 2.2 1.5 3.3 4.4 3 7.9-.6 5.9-9 19.6-16.7 20.4-.2-.1-.3-.1-.5-.1zm11.1-27.6c-.2 0-.5 0-.7.1-2.2.6-4.7 3.9-5.5 5.2v.1c-2.4 3-7.7 17.4-5.5 20.3.2.3.4.4.9.3 6.5-.7 14.5-13.6 15-18.9.3-2.9-.6-5.3-2.3-6.4-.6-.5-1.2-.7-1.9-.7z" fill="#000000" stroke-width="none" opacity="1"></path><path id="SvgjsPath8749" d="M144.5 79.3c-2.6 1.4-5 5.6-6.2 9.6v.1c0 .3.2.4.3.1.4-1.2 1-1.2 1.7 0 .2.7.1 1.5-.1 2.3-.2.7-.5 1.4-.8 1.9-.6 1.2-1.4 2-2.1 3-.2.3 0 .7.2.5 1.6-1 3.9-4.6 3.4-7.6-.2-1.4-1.1-2.2-1.8-1.7.9-2.1 1.9-3.9 3.2-5.4.7-.8 2.3-2.7 3.1-2.3 1.5.6.7 4.6.5 6.4 0 .3.2.4.3.1 1-2.9 1.1-8.5-1.7-7z" fill="#000000" stroke-width="none" opacity="1"></path><path id="SvgjsPath8750" d="M138.1 97.8c2.8-.9 4.8-4.6 6-8.8.7-2.5 2.1-8.3-.6-8.2-.2 0-.3.5-.1.6 2.5 1.1-.2 8.9-1 10.7-1.1 2.6-2.5 4.3-4.3 5.2-.2.2-.2.6 0 .5z" fill="#000000" stroke-width="none" opacity="1"></path></g></g><g id="svga-group-faceshape-wrap"><g id="svga-group-faceshape-single"><path id="SvgjsPath8781" d="M138.2 58.2c-2-10.8-13.3-27.4-37.2-27.4S69.1 43.5 65.5 53c-3 8.1-3 21.3-3 21.3s.4 28.4 10 46.1c9.3 17 28.9 31.8 46.2 11.8 21.5-24.8 20.6-57.8 20.6-57.8s.3-8.5-1.1-16.2z" fill="#ffffff" stroke-width="none" opacity="1"></path><path id="SvgjsPath8782" d="M100.7 143.1c-.8 0-1.5 0-2.3-.1-11.8-1.3-21.7-12.2-27-22-9.6-17.7-10.2-45.5-10.2-46.7 0-.6 0-13.6 3.1-21.8 5.8-15.5 17.8-23 36.7-23 10.9 0 20.5 3.4 27.7 10 5.5 5 9.6 11.9 10.8 18.5 1.4 7.6 1.2 15.7 1.2 16.4s.1 8.8-2.3 19.9c-2.3 10.5-7.4 25.8-18.7 38.8-5.8 6.6-12.2 10-19 10zm.3-111c-17.7 0-28.9 7-34.3 21.3-2.9 7.8-2.9 20.8-2.9 20.9 0 .3.5 28.3 9.9 45.5 5 9.2 14.2 19.5 25 20.6 6.8.7 13.3-2.3 19.1-9.1 20.9-24.1 20.3-56.6 20.3-57 0-.1.2-8.4-1.2-15.9-1.1-6-4.8-12.4-10-17-6.6-6.1-15.6-9.3-25.9-9.3z" fill="#000000" stroke-width="none" opacity="1"></path></g></g><g id="svga-group-mouth-single-move" transform="matrix(1,0,0,1,0,0)"><g id="svga-group-mouth-single"><path id="SvgjsPath8732" d="M117.11 115.24c-.34-.18-.6-.42-.78-.76-.35-.63-1.32-.07-.97.57.05.09.12.16.18.24-.01 0-.02 0-.03.01a38.04 38.04 0 0 1-7.15 2.53.56.56 0 0 0-.26-.01c-2.35.46-4.66.17-7.03.14-.74-.01-1.58.02-1.84.66-.71-.88-1.89-.76-3.04-.77-2.01-.01-4.03.01-6.04-.01h-.03c-1.84-.45-3.64-1.04-5.41-1.76l-.03-.03c.03-.17 0-.35-.14-.49-.2-.2-.6-.23-.79 0-.3.35-.59.7-.89 1.05-.2.23-.23.57 0 .79.2.2.6.23.79 0 .12-.14.24-.28.35-.42.02.01.03.03.05.04h.01c2.85 2.85 5.63 5.83 8.62 8.54 2.43 2.21 5.3 2.28 8.46 2.17 3.4-.13 5.96-1.38 8.39-3.76 2.48-2.43 4.79-5.09 6.93-7.83.03.01.04.04.07.05.27.14.61.07.77-.2.16-.23.08-.61-.19-.75zm-30.48 2.75c9.03 3.05 18.91 2.7 27.73-.97-1.34 1.61-2.75 3.16-4.18 4.68-6.42 2.51-13.26 2.45-19.73.02-.02-.01-.03.01-.05 0-1.26-1.24-2.51-2.48-3.77-3.73zm22.46 4.84-.06-.12c.09-.03.19-.06.28-.1l-.22.22zm-.5.49c-.07-.13-.15-.27-.22-.4.04-.01.08-.02.12-.04v.02c.06.11.11.23.17.34-.02.03-.04.06-.07.08zm-.89.77c-.19-.27-.38-.55-.57-.82.07-.02.15-.03.22-.05l.39.84c-.02.01-.03.02-.04.03zm-.65.48-1.03-1.03.52-.12c.24.34.47.68.71 1.02-.07.04-.13.08-.2.13zm-.83.54c-.31-.48-.62-.96-.92-1.44l.18-.03c-.01.07.01.15.08.22l1.04 1.04c-.13.07-.26.14-.38.21zm-.72.4c-.3-.57-.61-1.14-.91-1.72.04-.01.08-.01.12-.02v.01l1.02 1.59c-.08.06-.15.11-.23.14zm-.54.24c-.44-.58-.81-1.2-1.13-1.84.06-.01.11-.02.17-.02l.99 1.86c-.02-.01-.03-.01-.03 0zm-.91.34c-.48-.65-.89-1.34-1.25-2.07.14-.01.28-.02.42-.04.34.7.74 1.36 1.21 1.99-.12.04-.25.08-.38.12zm-.68.19c-.57-.73-1.14-1.46-1.7-2.18.18-.01.36-.01.53-.03.35.77.8 1.49 1.29 2.18-.04 0-.08.02-.12.03zm-.83.16c-.44-.58-.82-1.18-1.16-1.82l1.39 1.78c-.08.02-.15.03-.23.04zm-.85.13c-.6-.78-1.14-1.59-1.62-2.45h.44c0 .02-.01.04 0 .07.39.83.88 1.6 1.42 2.35l-.24.03zm-.97.05c-.54-.8-1.01-1.63-1.41-2.51.05 0 .09.01.14.01.01.03-.01.05.01.08.47.84 1 1.64 1.57 2.41-.1 0-.2.01-.31.01zm-.77.02c-.53-.86-1.06-1.72-1.59-2.59.11.01.22.01.33.02v.03c.39.89.86 1.73 1.39 2.54h-.13zm-2.19-.05c-.62-.89-1.18-1.82-1.67-2.8.03.01.07.01.1.02 0 .04.01.09.05.13.66.92 1.4 1.78 2.09 2.68l-.57-.03zm-.97-.12c-.53-.92-1.03-1.86-1.5-2.82.04.01.08.02.11.02v.02c.47.98 1.03 1.9 1.63 2.8-.08 0-.16 0-.24-.02zm-1.71-.55c-.59-.9-1.18-1.81-1.78-2.71.1.03.2.05.3.08.53.9 1.06 1.79 1.59 2.69a1.09 1.09 0 0 0-.11-.06zm-1.74-1.26c-.38-.53-.7-1.1-.97-1.7.05.01.1.03.14.04.01.02 0 .03.01.05l1.38 2.1c-.19-.16-.38-.32-.56-.49zm2.68 1.61c-.55-.93-1.1-1.87-1.65-2.8.07.02.15.03.22.05.45.94.94 1.85 1.45 2.76-.01 0-.02-.01-.02-.01zm2.97.37c.01-.01.01-.02.02-.03-.17-.18-.31-.42-.46-.61-.54-.7-1.1-1.38-1.63-2.08.25.03.51.05.76.08.01.01 0 .02 0 .03.54.87 1.08 1.75 1.61 2.62-.1-.01-.2-.01-.3-.01zm2.11-2.52c.01 0 .01 0 0 0 .01 0 .01 0 0 0 .01 0 0 0 0 0zm-9.81-1.51c.15.05.31.1.46.15-.01.05-.03.09-.01.15.04.1.09.19.13.29l-.09-.09c-.16-.17-.33-.33-.49-.5z" fill="#000000" stroke-width="none" opacity="1"></path></g></g><g id="svga-group-eyes-left-move" transform="matrix(1,0,0,1,0,0)"><g id="svga-group-eyes-left"><g id="svga-group-eyesback-left"></g><g id="svga-group-eyesiriswrapper-left"><g id="svga-group-eyesiriscontrol-left" transform="matrix(1,0,0,1,0,0)"><g id="svga-group-eyesiris-left"><path id="SvgjsPath8814" d="M81 82.8c2.2 0 3.9 1.7 3.9 3.9s-1.8 3.9-3.9 3.9-4-1.8-4-3.9 1.8-3.9 4-3.9z" fill="#000000" stroke-width="none" opacity="1"></path><path id="SvgjsPath8815" d="M77.6 84.6c-.4.9-.4 2-.1 2.9.3.9.8 1.7 1.6 2.1s1.8.5 2.6.3c.9-.2 1.6-.7 2.1-1.5.4-.8.6-1.7.4-2.6-.1-.4-.3-.8-.5-1.2-.3-.3-.6-.7-1-.9-.4-.2-.8-.4-1.3-.5-.4-.1-.9-.1-1.4-.1-.1 0-.2 0-.4.1-.1 0-.2.1-.3.1l-.6.3c-.5.3-.8.7-1.1 1 .2-.4.5-.8.9-1.2.2-.2.4-.3.7-.4.1-.1.2-.1.4-.1s.2-.1.4-.1c.5-.1 1.1-.2 1.6-.1s1 .2 1.5.5c.5.2 1 .6 1.3 1 .4.4.6 1 .8 1.5.3 1.1.1 2.3-.5 3.3-.3.5-.7.9-1.2 1.2s-1 .6-1.6.7c-1.1.2-2.3.1-3.2-.6-.5-.3-.9-.7-1.2-1.2-.3-.5-.5-1-.6-1.5-.1-1 .1-2.1.7-3z" fill="#ffffff" stroke-width="none" opacity="1"></path><path id="SvgjsPath8816" d="M81 91.1c-.9 0-1.7-.2-2.4-.7-.5-.3-.9-.7-1.2-1.2-.3-.5-.5-1-.6-1.6-.2-1.1.1-2.2.6-3.1.2-.3.4-.6.6-.8l.2-.2v.1l.2-.2c.2-.2.4-.3.7-.5.1-.1.2-.1.4-.2.1 0 .3-.1.4-.1.6-.2 1.1-.2 1.7-.1.6.1 1.1.2 1.6.5s1 .6 1.4 1.1c.4.4.6 1 .8 1.6.3 1.1.1 2.4-.5 3.4-.3.5-.7 1-1.2 1.3-.5.3-1 .6-1.6.7H81zm-3.9-5c-.1.5-.1 1 0 1.5s.3 1 .5 1.5c.3.4.7.8 1.1 1.1.9.6 2 .8 3.1.6.5-.1 1.1-.3 1.5-.6s.8-.7 1.1-1.2c.6-.9.7-2.1.5-3.2-.1-.6-.4-1.1-.7-1.5-.3-.4-.8-.7-1.3-1-.5-.2-.9-.4-1.5-.5-.5-.1-1 0-1.6.1-.1 0-.2.1-.4.1-.1 0-.2.1-.4.1-.2.1-.3.2-.5.3.2-.1.3-.2.5-.2.1 0 .2-.1.4-.1.1 0 .2 0 .4-.1.6-.1 1 0 1.4.1.6.2 1 .3 1.3.6.4.2.8.6 1 .9.3.4.4.8.5 1.2.2.9 0 1.9-.5 2.7-.4.8-1.2 1.3-2.2 1.6-.9.2-1.9.1-2.7-.3-.8-.4-1.4-1.2-1.7-2.2.3-.5.2-1 .2-1.5zm.6-1.3c-.3.9-.4 1.8-.1 2.7.3.9.8 1.7 1.6 2.1s1.7.5 2.5.3 1.6-.7 2-1.4c.4-.7.6-1.6.4-2.5-.1-.4-.2-.8-.5-1.1-.2-.3-.6-.6-.9-.8-.3-.2-.7-.4-1.3-.5-.4-.1-.8-.1-1.3-.1-.1 0-.2 0-.3.1-.1 0-.2.1-.3.1l-.6.3c-.5 0-.9.3-1.2.8z" fill="#000000" stroke-width="none" opacity="1"></path><path id="SvgjsPath8817" d="M81 84.6c-1.2-.3-2.6 1.2-2.3 2.4.1.3.3.5.6.5s.6-.1.8-.4c.1-.1.1-.2.2-.3l.1-.1v-.1l.1-.1.1-.1s.2-.1.1-.1c.2-.1.4-.1.5-.2.7-.3.6-1.3-.2-1.5z" fill="#ffffff" stroke-width="none" opacity="1"></path></g></g></g><g id="svga-group-eyesfront-left"><path id="SvgjsPath8872" d="M81 74.4c-6.9 0-12.5 5.6-12.5 12.5S74.1 99.4 81 99.4s12.5-5.6 12.5-12.5S87.9 74.4 81 74.4zm7.1 17s-3.9.4-5.4.4c-4.1 0-7.1-1.8-7.1-1.8s-7.5-5.3-2.3-7.1c5-1.7 11.2.8 13.2 2.9 2.1 2.1 1.6 5.6 1.6 5.6z" fill="#ffffff" stroke-width="none" opacity="1"></path><path id="SvgjsPath8873" d="M71.3 84c-.3.8-.2 1.7.4 2.8 1.4 2.4 3.9 4.2 7.1 4.9 1.2.3 2.5.4 3.9.4s3-.1 4.7-.4c.1 0 .2-.1.3-.2 0 .1.1.3.3.3.2.1.5 0 .6-.3.7-1.9 0-4.3-1.6-6-1.2-1.3-3-2.2-5.4-3-3.2-.9-5.9-1-8.2-.2-1.2.5-1.8 1-2.1 1.7zm.8.4c.2-.5.7-.8 1.5-1.1 2.1-.7 4.7-.6 7.7.2 2.3.7 3.9 1.5 5 2.7 1.4 1.4 1.9 3.4 1.4 4.9-.1-.2-.2-.3-.4-.3h-.1c-3.3.6-6 .6-8.3 0-2.9-.7-5.3-2.3-6.5-4.5-.3-.5-.6-1.3-.3-1.9zm-4.9-3c.1 0 .2.1.2.2 0 .3.1.5.3.7.4.3 1.3.4 2.2.3.4-.1.9-.3 1.6-.5 1.6-.6 3.8-1.3 6.5-1.4 3.6-.1 8.3 1.2 10.3 4.2 1.2 1.7 1.7 4.2 1.5 7.2v.1c0 .1-.1.2-.2.2s-.2-.1-.2-.2V92c.2-2.9-.3-5.3-1.4-7-1.9-2.8-6.5-4.1-9.9-4-2.6 0-4.8.8-6.4 1.3-.6.2-1.2.4-1.6.5-1.1.4-2.1.2-2.6-.2-.3-.2-.5-.6-.5-1 0-.1.1-.2.2-.2z" fill="#000000" stroke-width="none" opacity="1"></path></g></g></g><g id="svga-group-eyes-right-move" transform="matrix(1,0,0,1,0,0)"><g id="svga-group-eyes-right"><g id="svga-group-eyesback-right"></g><g id="svga-group-eyesiriswrapper-right"><g id="svga-group-eyesiriscontrol-right" transform="matrix(1,0,0,1,0,0)"><g id="svga-group-eyesiris-right"><path id="SvgjsPath8818" d="M119.5 82.8c2.2 0 3.9 1.7 3.9 3.9s-1.8 3.9-3.9 3.9-3.9-1.7-3.9-3.9 1.8-3.9 3.9-3.9z" fill="#000000" stroke-width="none" opacity="1"></path><path id="SvgjsPath8819" d="M116.1 84.6c-.4.9-.4 2-.1 2.9.3.9.8 1.7 1.6 2.1s1.8.5 2.6.3c.9-.2 1.6-.7 2.1-1.5.4-.8.6-1.7.4-2.6-.1-.4-.3-.8-.5-1.2-.3-.3-.6-.7-1-.9-.4-.2-.8-.4-1.3-.5-.4-.1-.9-.1-1.4-.1-.1 0-.2 0-.4.1-.1 0-.2.1-.3.1l-.6.3c-.4.3-.8.7-1.1 1 .2-.4.5-.8.9-1.2.2-.2.4-.3.7-.4.1-.1.2-.1.4-.1s.2-.1.4-.1c.5-.1 1.1-.2 1.6-.1s1 .2 1.5.5c.5.2 1 .6 1.3 1 .4.4.6 1 .8 1.5.3 1.1.1 2.3-.5 3.3-.3.5-.7.9-1.2 1.2s-1 .6-1.6.7c-1.1.2-2.3.1-3.2-.6-.5-.3-.9-.7-1.2-1.2-.3-.5-.5-1-.6-1.5-.1-1 .2-2.1.7-3z" fill="#ffffff" stroke-width="none" opacity="1"></path><path id="SvgjsPath8820" d="M119.5 91.1c-.9 0-1.7-.2-2.4-.7-.5-.3-.9-.7-1.2-1.2-.3-.5-.5-1-.6-1.6-.2-1.1.1-2.2.6-3.1.2-.3.4-.6.6-.8l.2-.2v.1l.2-.2c.2-.2.4-.3.7-.5.1-.1.2-.1.4-.2.1 0 .3-.1.4-.1.6-.2 1.1-.2 1.7-.1.6.1 1.1.2 1.6.5s1 .6 1.4 1.1c.4.4.6 1 .8 1.6.3 1.1.1 2.4-.5 3.4-.3.5-.7 1-1.2 1.3-.5.3-1 .6-1.6.7h-1.1zm-3.8-5c-.1.5-.1 1 0 1.5s.3 1 .5 1.5c.3.4.7.8 1.1 1.1.9.6 2 .8 3.1.6.5-.1 1.1-.3 1.5-.6s.8-.7 1.1-1.2c.6-.9.7-2.1.5-3.2-.1-.6-.4-1.1-.7-1.5-.3-.4-.8-.7-1.3-1-.5-.2-.9-.4-1.5-.5-.5-.1-1 0-1.6.1-.1 0-.2.1-.4.1-.1 0-.2.1-.4.1-.2.1-.3.2-.5.3.2-.1.3-.2.5-.2.1 0 .2-.1.4-.1.1 0 .2 0 .4-.1.6-.1 1 0 1.4.1.6.2 1 .3 1.3.6.4.2.8.6 1 .9.3.4.4.8.5 1.2.2.9 0 1.9-.5 2.7-.4.8-1.2 1.3-2.2 1.6-.9.2-1.9.1-2.7-.3-.8-.4-1.4-1.2-1.7-2.2.2-.5.2-1 .2-1.5zm.5-1.3c-.3.9-.4 1.8-.1 2.7.3.9.8 1.7 1.6 2.1s1.7.5 2.5.3 1.6-.7 2-1.4c.4-.7.6-1.6.4-2.5-.1-.4-.2-.8-.5-1.1-.2-.3-.6-.6-.9-.8-.3-.2-.7-.4-1.3-.5-.4-.1-.8-.1-1.3-.1-.1 0-.2 0-.3.1-.1 0-.2.1-.3.1l-.6.3c-.5 0-.8.3-1.2.8z" fill="#000000" stroke-width="none" opacity="1"></path><path id="SvgjsPath8821" d="M119.6 84.6c-1.2-.3-2.6 1.2-2.3 2.4.1.3.3.5.6.5s.6-.1.8-.4c.1-.1.1-.2.2-.3l.1-.1v-.1l.1-.1.1-.1s.2-.1.1-.1c.2-.1.4-.1.5-.2.6-.3.6-1.3-.2-1.5z" fill="#ffffff" stroke-width="none" opacity="1"></path></g></g></g><g id="svga-group-eyesfront-right"><path id="SvgjsPath8874" d="M119 74.4c-6.9 0-12.5 5.6-12.5 12.5s5.6 12.5 12.5 12.5 12.5-5.6 12.5-12.5-5.6-12.5-12.5-12.5zm5.3 15.6s-3 1.7-7.1 1.8c-1.5 0-5.4-.4-5.4-.4s-.5-3.4 1.5-5.5 8.2-4.6 13.2-2.9c5.4 1.7-2.2 7-2.2 7z" fill="#ffffff" stroke-width="none" opacity="1"></path><path id="SvgjsPath8877" d="M126.6 82.4c-2.3-.8-5.1-.7-8.2.2-2.4.7-4.2 1.7-5.4 3-1.6 1.7-2.3 4-1.6 6 .1.2.3.4.6.3.2-.1.3-.2.3-.3.1.1.2.2.3.2 1.7.3 3.3.4 4.7.4 1.4 0 2.7-.1 3.9-.4 3.1-.7 5.7-2.6 7.1-4.9.6-1.1.7-2 .4-2.8-.4-.8-1-1.3-2.1-1.7zm.9 3.9c-1.2 2.2-3.6 3.8-6.5 4.5-2.3.6-4.9.5-8.3 0h-.1c-.2 0-.4.1-.4.3-.5-1.6.1-3.5 1.4-4.9 1.1-1.2 2.7-2 5-2.7 3-.9 5.6-.9 7.7-.2.8.3 1.3.6 1.5 1.1.3.6 0 1.4-.3 1.9zm5.2-4.9c-.1 0-.2.1-.2.2 0 .3-.1.5-.3.7-.4.3-1.3.4-2.2.3-.4-.1-.9-.3-1.6-.5-1.6-.6-3.8-1.3-6.5-1.4-3.6-.1-8.3 1.2-10.3 4.2-1.2 1.7-1.7 4.2-1.5 7.2v.1c0 .1.1.2.2.2s.2-.1.2-.2V92c-.2-2.9.3-5.3 1.4-7 1.9-2.8 6.5-4.1 9.9-4 2.6 0 4.8.8 6.4 1.3.6.2 1.2.4 1.6.5 1.1.2 2.1.1 2.6-.3.3-.2.5-.6.5-1 0 0-.1-.1-.2-.1z" fill="#000000" stroke-width="none" opacity="1"></path></g></g></g><g id="svga-group-facehighlight-single"></g><g id="svga-group-eyebrows-left-move" transform="matrix(1,0,0,1,0,1)"><g id="svga-group-eyebrows-left-rotate" transform="matrix(0.9978589232386035,-0.0654031292301432,0.0654031292301432,0.9978589232386035,-4.690565786106447,5.362446663259391)"><g id="svga-group-eyebrows-left"><path id="SvgjsPath8912" d="M68.15 74.45c.07-.02 7.19-1.94 13.38-2.06 5.03-.1 9.36 1.37 9.73 2.7.1.37-.06.71-.42.92-.18.1-.65.17-1.34.21-4.48.24-18.19-.69-21.26-.91a.44.44 0 0 1-.41-.4c-.03-.2.11-.4.32-.46z" fill="#000000" stroke-width="none" opacity="1"></path></g></g></g><g id="svga-group-eyebrows-right-move" transform="matrix(1,0,0,1,0,1)"><g id="svga-group-eyebrows-right-rotate" transform="matrix(0.9914448613738104,-0.13052619222005174,0.13052619222005174,0.9914448613738104,-8.668368824669642,16.390657968753082)"><g id="svga-group-eyebrows-right"><path id="SvgjsPath8913" d="M132.11 74.45c-.07-.02-7.19-1.94-13.38-2.06-5.03-.1-9.36 1.37-9.73 2.7-.1.37.06.71.42.92.18.1.65.17 1.34.21 4.48.24 18.19-.69 21.26-.91a.44.44 0 0 0 .41-.4c.03-.2-.11-.4-.32-.46z" fill="#000000" stroke-width="none" opacity="1"></path></g></g></g><g id="svga-group-nose-single-move" transform="matrix(1,0,0,1,0,0)"><g id="svga-group-nose-single"><path id="SvgjsPath8904" d="M106.8 102.1c-.6-.5-1.4.3-.8.8 2.5 2.2-1.2 4.8-3.4 2.9-.3-.3-.7-.2-.9.1-1.3 1.8-3.9 1.8-5.4.3-.03-.05-.06-.1-.1-.2-.6-1-.7-2.1-.1-3.1.4-.7-.6-1.3-1-.6-.7 1.2-.8 2.6-.2 3.8-.9.5-1.9.6-2.9.1-1.4-.7-1.5-2.4-.4-3.5.5-.5-.3-1.4-.8-.8-1.3 1.3-1.5 3.4-.1 4.8 1.3 1.2 3.3 1.3 4.8.4 1.9 1.9 5 1.8 6.8-.1 1.4.9 3.4.9 4.7-.2 1.5-1.2 1.2-3.4-.2-4.7z" fill="#000000" stroke-width="none" opacity="1"></path></g></g><g id="svga-group-hair-front"><path id="SvgjsPath9203" d="M64.1 82.8S68 57 76.2 53c0 0 6.1-.2 11.4-2 0 0 12.3 5.9 28.4-.2 0 0 6.8 3.9 12.9 3.3 0 0 6.1 5.7 10 27.6 0 0 4.1-9.6 2-21.7-2-12.1-8.2-17.4-8.2-17.4s-1.6-10.2-8.2-13.9-10.6-2-10.6-2-1.8-3.5-7.8-5.5-16.1-2-20.4 2.9c0 0-10-1.4-16.2 13.9 0 0-8.4 9.2-9 25.8-.4 13.1 3.6 19 3.6 19z" fill="#ffffff" stroke-width="none" opacity="1"></path><path id="SvgjsPath9204" d="M141.9 59.7c-1.9-11-7-16.5-8.2-17.7-.4-1.9-2.4-10.8-8.6-14.3-5.3-3-9.1-2.7-10.7-2.3-.9-1.2-3.2-3.7-7.9-5.3-5.8-2-16.3-2-21.2 3-2.3-.1-11 .5-16.6 14.4-1.1 1.3-8.5 10.4-9.1 26.3-.5 13.2 3.5 19.4 3.6 19.6.2.3.5.4.8.4h.2c.4-.1.7-.4.8-.8 1.1-7 5.1-25.6 11.3-29 1.2-.1 6.4-.4 11.1-2 1.1.5 4.1 1.6 8.6 2.2.2.1.3.1.5 0 2.3.3 5 .4 7.9.1 3.5-.3 7.3-1 11.4-2.6 1.6.8 7.2 3.5 12.6 3.2 1.2 1.4 6.1 8.1 9.4 26.7.1.4.4.8.9.8s.9-.2 1-.6c.3-.2 4.3-9.9 2.2-22.1zm-6.7 3.9c1.5-4.1 2.1-8.3 2.1-12.5.7 1.7 1.4 3.6 2 5.8-.1 4.1-.8 8.1-2.3 11.9-.6-2-1.2-3.7-1.8-5.2zm-3.3-7.2c2-2.8 3.1-6 3.3-9.3.2.4.5.8.8 1.2.5 4.6 0 9.1-1.3 13.5-1.1-2.3-2.1-4.1-2.8-5.4zM126 30.9c2.5 7.7.4 15.4-5.8 20.6-.2-.1-.3-.1-.5-.2 3-3.2 2.4-9.4 2-13.3-.4-4-1.2-8.4-4.3-10.8 1.7.1 4 .7 6.7 2.2.7.5 1.3.9 1.9 1.5zm-9.4 19c2.7-7.5 2.2-15.4-1.4-22.4 4.6 1.9 5.2 8.1 5.4 12.3.2 3.2.6 8.6-2.1 11-1.1-.5-1.8-.8-1.9-.9zM113.1 27c.1.3.4.4.7.5 3.8 7 4.3 14.9 1.5 22.4-1.3.5-2.5.9-3.8 1.2 2.8-9.7 1.3-20-4-28.5 4.1 1.9 5.6 4.4 5.6 4.4zm-7.4 25.2c3.3-10.4 2.2-21.4-2.9-31 1 .2 1.9.4 2.7.6 6.1 8.8 7.8 19.4 4.6 29.6-1.6.4-3 .6-4.4.8zm-9.5-.1c-6-9.6-6.3-21.1-.8-31.1.6-.1 1.2-.1 1.8-.1-.6 10.6-.1 21.1 1.4 31.5-.8-.1-1.7-.2-2.4-.3zm-7.6-1.8c-7.3-7.1-8.1-17.7-1.9-25.7 1.7-1.8 4.3-2.8 7.1-3.3-5.1 9.9-4.8 21.1.7 30.7-2.8-.6-4.9-1.4-5.9-1.7zm-7.1 1.1c-5.4-7.8-8.1-18.5-.4-25.5 1.6-.6 2.9-.8 3.7-.8-5.2 8-4.5 17.9 1.9 25-1.7.6-3.5 1-5.2 1.3zm-3.7-23.6c-4.8 7.1-2.6 16.5 2.3 23.8-1.4.2-2.7.3-3.4.3-4-3.7-6.1-8.7-6-14.1 2.2-5.1 4.8-8.2 7.1-10zM68.5 62c-2.3-5.2-3.1-10.8-2.4-16.5.3-.7.7-1.4 1-2 .1 4.5 1.6 8.8 4.6 12.4-1.2 1.7-2.3 3.8-3.2 6.1zm-1.9 5.5c-1.9-5.2-2.8-10.5-2.9-16l.9-2.7c-.1 5.1 1 10.1 3.3 14.8-.5 1.3-1 2.6-1.3 3.9zm-3 12c-1-2.9-2.3-8-2-15.7.1-3 .5-5.8 1-8.3.4 4.8 1.5 9.4 3.4 13.9-1.1 3.9-1.9 7.6-2.4 10.1zm8.8-24.6c-3.1-3.9-4.5-8.7-4-13.6.4-.7.8-1.2 1.2-1.7.4 4.8 2.4 9.2 5.8 12.6-1.1.6-2.1 1.5-3 2.7zm27.5-2.5c-1.6-10.5-2.1-21-1.4-31.6.9 0 1.8.1 2.7.2 5.5 9.6 6.6 20.8 3.2 31.3-1.6.2-3.1.2-4.5.1zm21.6-.4c5.6-4.9 7.8-11.9 6.4-19 1.9 2.7 3 5.9 3.5 7.9.1 4.3-.1 8.9-3.2 12.1-2.3.1-4.7-.4-6.7-1zm8.1 1.3c2.2-2.7 2.9-6.1 3-9.5.3.3.7.8 1.2 1.5.2 3.6-.7 7-2.7 10-.8-1.3-1.4-1.9-1.5-2zm9.5 24.2c-.5-2.5-1.1-4.8-1.6-6.8 1.3-3 2.2-6.1 2.7-9.2.9 6.6-.1 12.5-1.1 16z" fill="#000000" stroke-width="none" opacity="1"></path></g><g id="svga-group-glasses-single-move" transform="matrix(1,0,0,1,0,-1)"><g id="svga-group-glasses-single" transform="matrix(1.0500002000000002,0,0,1.0500002000000002,-5.005088799266829,-4.501065329323595)"><path id="SvgjsPath8938" d="M96.15 86.78c0-1.12-1.09-2.89-7.19-3.75-6.1-.86-16.18.31-17.51.63-1.33.31-2.5 2.5-2.5 4.06 0 1.56.86 6.41 5.39 8.44 4.53 2.03 12.43 1.09 15.55-.31 3.13-1.41 6.26-3.68 6.26-9.07z" fill="#ffffff" stroke-width="none" opacity="0.44"></path><path id="SvgjsPath8939" d="M104.06 86.78c0-1.12 1.09-2.89 7.19-3.75 6.1-.86 16.18.31 17.51.63 1.33.31 2.5 2.5 2.5 4.06 0 1.56-.86 6.41-5.39 8.44-4.53 2.03-12.43 1.09-15.55-.31-3.14-1.41-6.26-3.68-6.26-9.07z" fill="#ffffff" stroke-width="none" opacity="0.44"></path><path id="SvgjsPath8940" d="M133.56 85.38c-.06-.18-1.59-.1-2.25-.06-.55-1.12-1.41-2.09-2.4-2.32-1.41-.33-11.5-1.52-17.76-.64-5.69.8-7.39 2.46-7.71 3.88-2.61-.88-5.35-.41-6.7-.06-.35-1.41-2.1-3.03-7.69-3.81-6.25-.89-16.35.29-17.75.63-.98.23-1.85 1.2-2.4 2.32-.65-.04-2.19-.12-2.25.06-.08.23-.08 1.62.08 1.93.11.22.96.13 1.58.06-.01.12-.03.24-.03.35 0 2.23 1.21 7 5.79 9.06 1.95.87 4.51 1.22 7.08 1.22 3.54 0 7.09-.67 9.02-1.54 2.96-1.33 6.32-3.55 6.62-8.9 1.09-.3 4.05-.94 6.63.11.34 5.27 3.68 7.47 6.62 8.79 1.94.87 5.48 1.54 9.02 1.54 2.57 0 5.13-.35 7.08-1.22 4.58-2.05 5.79-6.82 5.79-9.06 0-.11-.02-.24-.03-.35.62.07 1.47.16 1.58-.06.15-.31.15-1.7.08-1.93zm-43.94 9.85c-3.15 1.42-10.84 2.18-15 .31-4.1-1.84-5-6.27-5-7.83 0-1.38 1.06-3.19 1.98-3.41.98-.23 6.69-.92 12.02-.92 1.87 0 3.69.08 5.24.3 6.14.86 6.61 2.58 6.61 3.09.01 5.13-2.95 7.16-5.85 8.46zm35.97.31c-4.16 1.86-11.85 1.11-15-.31-2.9-1.3-5.86-3.33-5.86-8.45 0-.51.48-2.22 6.61-3.09 1.55-.22 3.37-.3 5.24-.3 5.33 0 11.04.69 12.02.92.93.22 1.98 2.03 1.98 3.41.01 1.55-.89 5.99-4.99 7.82z" fill="#000000" stroke-width="none" opacity="1"></path></g></g></g></g></g><rect id="svga-credit-rect" width="200" height="15" x="0" y="185" fill="#ecf0f1" opacity="0.5" style="display: none;"></rect><text id="svga-credit-text" font-family="Avenir Next, Roboto, Helvetica, Arial, sans-serif" font-size="10px" text-anchor="start" font-weight="400" size="10px" anchor="start" weight="400" fill="#333333" x="33.402061462402344" y="182.71133995056152" style="display: none;"><tspan id="SvgjsTspan8726" dy="13" x="33.402061462402344">Created on AvatarMaker.com</tspan></text></g><defs id="SvgjsDefs8678"></defs></svg>